# xmcd
#
# Track frame offsets:
#	210
#	12588
#	25645
#	38431
#	52019
#	66041
#	80155
#	93739
#	107146
#	120609
#	134498
#	149616
#	163415
#	176745
#	191143
#	206473
#	220389
#	234723
#	247837
#	262672
#	276402
#	291888
#	306832
#	320787
#
# Disc length: 4475 seconds
#
# Revision: 1
# Processed by: cddbd v1.4PL0 Copyright (c) Steve Scherf et al.
# Submitted via: EasyCDDAExtractor 5.0.6
#
DISCID=76117918
DTITLE=Roy Harvey - Complete Recorded Works in Chronological Order Volume 3: 1
DTITLE=929-1930
DYEAR=1900
DGENRE=country
TTITLE0=Fred Newman: San Antonio
TTITLE1=What Is A Home Without Babies
TTITLE2=Earl Shirkey and Roy Harper: The Virginian Strike Of '23
TTITLE3=The Policeman's Little Child
TTITLE4=My Yodeling Sweetheart
TTITLE5=I'm Longing To Belong To Someone
TTITLE6=We Have Moonshine In The West Virginia Hills
TTITLE7=A Hobo's Pal
TTITLE8=Weaver Brothers: You Come Back To Me
TTITLE9=Prison Sorrows
TTITLE10=Roy Harvey and Leonard Copeland: Greasy Wagon
TTITLE11=Mother's Waltz
TTITLE12=Back To The Blue Ridge
TTITLE13=Roy Harvey: Just Good-Bye I Am Going Home
TTITLE14=The Lilly Reunion
TTITLE15=Hobo's Pal
TTITLE16=No Room For A Tramp
TTITLE17=Little Seaside Village
TTITLE18=Milwaukee Blues
TTITLE19=When The Bees Are In The Hive
TTITLE20=The Dying Brakeman
TTITLE21=Railroad Blues
TTITLE22=Jefferson Street Rag
TTITLE23=Guitar Rag
EXTD=
EXTT0=
EXTT1=
EXTT2=
EXTT3=
EXTT4=
EXTT5=
EXTT6=
EXTT7=
EXTT8=
EXTT9=
EXTT10=
EXTT11=
EXTT12=
EXTT13=
EXTT14=
EXTT15=
EXTT16=
EXTT17=
EXTT18=
EXTT19=
EXTT20=
EXTT21=
EXTT22=
EXTT23=
PLAYORDER=
